<?xml version="1.0" encoding="UTF-8"?>
<svg width="477px" height="103px" viewBox="0 0 477 103" version="1.1" xmlns="http://www.w3.org/2000/svg" xmlns:xlink="http://www.w3.org/1999/xlink">
    <!-- Generator: Sketch 49.3 (51167) - http://www.bohemiancoding.com/sketch -->
    <title>Group</title>
    <desc>Created with Sketch.</desc>
    <defs></defs>
    <g id="Page-1" stroke="none" stroke-width="1" fill="none" fill-rule="evenodd" fill-opacity="0.535439312">
        <g id="Group" fill="#538A18">
            <path d="M20.1781072,14.5633635 C19.6207546,15.8929617 14.4162293,15.4451962 14.3023616,13.8775887 C14.1328443,11.5351671 21.1464108,12.2526193 20.1781072,14.5633635 M25.7062565,13.6935168 C28.6556873,13.9332383 33.5014864,15.9366253 36.3438987,14.7260316 C40.6820019,12.8784637 36.126437,10.0429006 33.799426,9.19531386 C31.4313199,8.33317256 27.9039891,8.79121188 26.6865463,6.3152311 C25.7704676,4.45310863 28.0341236,-0.745423627 25.2259573,0.0901770778 C22.279095,0.966872899 23.1360994,8.41365049 18.5120426,5.90342378 C16.3066047,4.70567236 17.2064165,-2.59042313 13.5121368,1.1372464 C12.5010257,2.15691899 12.4128424,4.02931524 11.0738265,4.78957489 C9.7074139,5.56610137 7.99340508,4.75704126 6.55079525,4.82467697 C2.73151785,5.00361196 1.51493117,8.57631866 5.38472132,9.99324404 C6.81705736,10.5180629 12.2159283,11.1584618 8.94544195,13.4991712 C6.88469308,14.9734585 2.30686831,11.8793387 0.537209852,14.4460712 C-1.89510736,17.9716897 4.62018092,18.0513115 6.37014797,19.1060862 C9.33584555,20.8920114 6.88640537,25.0640219 7.12270229,28.0348564 C7.48485301,32.5741545 10.1217897,31.6255422 11.0798196,27.7840049 C11.8923043,24.5246485 10.8854739,19.832956 15.7989088,21.1283083 C23.8004705,23.2378577 11.3495063,33.3960568 17.2106973,35.9953229 C20.9477844,37.652826 21.4768841,28.6932344 21.7671183,27.1504552 C22.8415844,21.4562131 26.0401543,22.7849552 30.8859535,22.9596095 C36.5468058,23.1633728 37.9132184,18.9759516 31.9184683,17.7764879 C30.0058331,17.3937896 27.3748895,17.8775134 25.7139618,16.6592144 C24.7311036,15.9391937 23.3801017,13.5051642 25.7062565,13.6935168" id="react-path-229"></path>
            <path d="M474.785718,72.1755768 C472.454427,71.3228531 469.570063,69.6576447 466.978502,70.225271 C464.224273,70.8279994 463.115561,73.5865091 461.113031,75.2448683 C455.668784,79.7542012 452.497611,73.0334373 449.506229,69.3502875 C446.680939,65.8726133 443.234086,65.0284511 439.24786,67.1653971 C437.659705,68.0172647 430.968906,71.9204446 432.135836,74.4212537 C432.974862,76.2208773 436.28045,74.6053256 437.407997,74.2123535 C439.855725,73.360486 442.128799,72.6147808 444.632177,73.857052 C449.32815,76.1857752 450.546449,82.5717851 456.227849,83.5674856 C462.102738,84.5974319 462.295371,79.0067838 466.487929,76.9023713 C469.298664,75.4922952 471.256675,77.9888235 473.968097,77.4914014 C476.551952,77.0179514 477.747135,73.2577482 474.785718,72.1755768" id="react-path-232"></path>
            <path d="M427.37982,94.8654376 C429.457692,95.3166277 430.813831,91.2867378 432.11432,90.2644968 C434.271814,88.5701794 438.012325,88.2285763 440.209202,89.9340236 C444.499361,93.262728 443.020793,100.449237 449.12941,102.322489 C454.589068,103.997115 457.160937,96.8063257 461.756741,95.0161197 C464.42878,93.9750434 467.361944,93.2935494 466.319155,89.5581745 C465.599135,86.9751752 463.477599,86.3116603 461.171136,87.3039361 C457.207169,89.0076712 455.861304,95.9484651 451.161906,96.0726066 C446.29984,96.2010289 445.772453,89.191743 443.685164,86.1387183 C440.502861,81.4855525 433.961032,80.3614299 430.243636,84.8108324 C429.121226,86.1532729 423.422703,94.0084332 427.37982,94.8654376" id="react-path-233"></path>
        </g>
    </g>
</svg>