<?xml version="1.0" encoding="UTF-8"?>
<svg width="199px" height="177px" viewBox="0 0 199 177" version="1.1" xmlns="http://www.w3.org/2000/svg" xmlns:xlink="http://www.w3.org/1999/xlink">
    <!-- Generator: Sketch 49.3 (51167) - http://www.bohemiancoding.com/sketch -->
    <title>Group 2</title>
    <desc>Created with Sketch.</desc>
    <defs></defs>
    <g id="Page-1" stroke="none" stroke-width="1" fill="none" fill-rule="evenodd">
        <g id="Group-2" fill="#538A18">
            <path d="M153.582379,96.1982394 C154.061822,95.0724044 154.539553,93.9465694 155.018996,92.8215906 C155.61145,94.7838824 155.777543,95.7598915 153.582379,96.1982394 M154.220209,101.398484 C153.181702,101.584268 153.59094,98.326624 153.59094,97.7589977 C155.384571,98.7743895 153.899154,99.9918323 154.220209,101.398484 M152.601233,92.0005444 C153.48649,91.4774379 154.371748,90.9551874 155.257005,90.4320808 C154.024152,92.7162844 154.507875,91.2890852 155.016427,92.8147414 C154.08665,93.0818597 153.182558,92.7702217 152.601233,92.0005444 M147.354757,109.852948 C144.036326,121.892961 133.496285,131.388501 122.363789,136.307073 C115.966649,139.132362 109.677384,139.839541 102.769123,139.524478 C100.10479,139.402905 96.9695751,138.537339 94.405411,138.698295 C92.4311332,138.822437 92.5201726,138.908052 90.8849294,140.579253 C90.1614841,139.247086 90.6854468,138.312172 89.2342755,137.536502 C87.423522,136.569055 86.6718238,137.695746 85.7737244,139.035618 C84.5982329,137.817319 84.1170775,137.181201 82.5939898,136.457755 C82.6419341,136.480871 81.1359693,136.423509 81.197612,136.442345 C80.9253568,136.358442 79.2875452,135.30538 78.7747124,135.113603 C76.6702999,134.324234 74.2371266,133.999754 72.2953823,132.867069 C70.5967842,131.878218 69.1978379,129.101729 67.2543813,131.235251 C67.2526691,127.67025 62.4505334,126.191681 60.1997197,124.324422 C56.6826626,121.406669 53.8864824,117.086545 52.1330907,112.907685 C50.2632629,108.451433 49.6391308,104.179253 48.7641473,99.5868742 C48.1528574,96.3780305 44.1495082,91.7394192 46.5535725,88.5014665 C47.1263357,89.8593176 46.8575051,91.2497024 47.8086858,92.4808436 C48.6648341,90.8310459 49.1357157,88.9851903 49.5226947,87.1795736 C49.7127596,86.2951724 50.8137663,83.6993309 50.6887686,82.9287974 C50.4344926,81.3517723 48.4824745,81.2661575 49.5646459,79.3329747 C51.8094667,81.7755657 53.6210764,77.4862629 51.9250467,75.7765349 C51.0877337,76.7208664 50.7803765,77.7936202 50.3942536,78.9631187 C48.1871034,74.5077231 54.2957212,75.9426276 52.9592738,71.9204431 C55.1886839,71.4915128 56.4703378,70.9298795 57.3179246,68.7270101 C58.2605438,66.2758576 57.5670638,65.7416211 59.7074344,64.1217885 C60.4437219,63.5652922 62.5258745,62.7647935 62.9068605,61.8487149 C63.6440041,60.0790564 61.7681833,59.5542376 63.4111318,57.8958784 C63.9659159,58.869319 66.1285464,60.7965087 67.3125994,58.9626391 C67.5497525,58.5970638 66.5540521,58.3376509 67.2783535,57.495201 C68.3511073,56.2486491 69.5514271,55.0260694 71.3656053,55.2880508 C69.9289885,51.6965088 79.1086102,51.4122676 81.4595933,50.5646808 C83.8157134,49.7162379 85.8148195,49.1588854 88.31306,48.9619713 C90.8087322,48.7650571 90.9328737,48.0339065 93.0458476,46.5313663 C93.2247826,48.6811546 93.7418961,48.2085608 95.2701208,48.5878345 C95.6374084,47.9577093 96.0141136,47.886649 96.3993804,48.3755097 C96.7829348,48.7402288 97.252104,48.9114585 97.8051758,48.8909109 C98.6442011,48.9345745 99.596238,48.8249875 100.475502,48.8429666 C102.539676,48.8832056 104.668916,48.7111198 106.693707,48.7547834 C107.215958,48.6674562 107.703962,48.4859528 108.161145,48.2094169 C108.352066,48.5689992 108.543843,48.9294376 108.733908,49.289876 C109.806662,49.4242913 109.889709,50.7684441 111.209033,49.2984375 C111.599437,51.1674092 112.720991,50.1948247 113.9059,50.7016645 C114.986359,51.1648407 115.158445,51.9045528 116.155858,52.4208102 C116.811667,52.9524783 117.514565,53.0226825 118.266263,52.633135 C118.981147,53.1630908 119.707161,53.6776359 120.443448,54.1767703 C121.800443,54.943023 123.399728,55.4121923 124.829496,56.0174891 C125.780676,56.409605 126.725864,56.8179877 127.663346,57.240925 C127.691599,58.372753 128.199295,58.7725742 129.185578,58.4395325 C130.076828,59.1852377 130.32768,59.1561286 131.19239,60.4257965 C133.151257,63.3033108 134.889238,65.5387139 137.363506,68.1105833 C148.117585,79.2918796 151.421461,95.0998012 147.354757,109.852948 M150.655208,62.3076104 C145.799991,55.8060205 138.927689,48.3609552 132.752292,44.2548681 C129.622214,42.1727155 125.228461,38.4356284 121.400622,37.3346217 C120.493105,37.0734965 119.55391,37.0563735 118.661804,36.7824061 C117.972604,36.5709374 117.597611,35.863759 116.811667,35.7361929 C116.26202,35.6471535 116.201234,36.8774385 115.61734,36.7644269 C114.396473,36.5264177 113.622515,35.3149679 112.760374,34.5572767 C110.908525,37.7481413 109.903407,32.381804 107.18428,35.9896128 C103.94804,30.915222 96.345443,32.0247902 91.1777321,32.2807785 C89.6452267,32.3561195 88.925206,32.901486 87.5664987,33.305588 C86.3019677,33.681437 86.1769703,33.5846923 84.7960031,33.5744185 C81.3568555,33.5478779 78.3038308,33.9802328 75.1249523,35.4904783 C69.7842995,38.0272456 64.8819945,41.9800822 59.8093161,45.0373876 C54.1399023,48.4542753 49.0295533,52.8035085 44.6923062,57.8008459 C29.0128069,75.8707112 24.8202488,102.246071 37.3225819,123.194306 C57.1809409,156.465084 108.405147,160.020668 137.431142,137.44575 C159.856233,120.003442 168.390319,86.0520263 150.655208,62.3076104" id="react-path-228"></path>
            <path d="M193.244364,154.305373 C188.663115,152.664993 180.998876,153.019438 179.865335,158.936279 C179.391029,161.413116 180.314813,164.032929 182.025397,165.832553 C184.009093,167.918986 187.16828,168.112476 186.999619,164.478983 C186.882326,161.964475 184.489392,159.780441 188.696505,159.273601 C191.314606,158.958539 195.186965,160.91655 195.317099,163.808619 C195.611614,170.327331 184.32758,170.838452 180.169268,169.710905 C171.915999,167.474645 174.158251,158.830116 179.825952,154.884985 C181.289966,153.865313 185.491086,152.295137 185.682863,150.177882 C185.937995,147.369716 182.465458,147.943335 180.763435,148.313191 C168.25254,151.036599 165.525708,171.995108 178.598236,175.946233 C184.534768,177.739863 192.895056,175.888014 196.472899,170.511403 C199.827288,165.470402 199.872664,156.678616 193.244364,154.305373" id="react-path-230"></path>
            <path d="M26.5038727,5.83624896 C22.5929874,7.71891899 18.6821022,9.60158902 14.7720731,11.484259 C13.4792892,8.71804401 11.295255,1.16082329 8.01620708,0.1959442 C2.70808785,-1.36652638 6.08816119,6.87133221 7.00423983,8.75485839 C7.75679416,10.3019183 9.50248049,12.6991334 9.0786871,14.5432768 C8.51020463,17.0278191 5.00513364,17.9079395 3.17040791,19.1895934 C-1.36974633,22.3624789 -1.3337881,29.0258808 5.24143056,26.2023038 C8.96225094,24.603875 13.5691847,20.1715955 16.4210146,25.204035 C17.7377706,27.5259091 20.8575749,40.4982675 24.1160752,32.0146944 C26.1323044,26.7622248 16.4278638,21.3051358 21.2120203,16.8617263 C22.752231,15.4319587 24.5552793,15.3112418 26.0937777,14.4893395 C29.8094611,12.5039316 27.7144663,8.83533632 26.5038727,5.83624896" id="react-path-231"></path>
        </g>
    </g>
</svg>
