<?xml version="1.0" standalone="no"?><!DOCTYPE svg PUBLIC "-//W3C//DTD SVG 1.1//EN" "http://www.w3.org/Graphics/SVG/1.1/DTD/svg11.dtd" ><svg xmlns="http://www.w3.org/2000/svg"><metadata></metadata><defs><font id="fonteditor" horiz-adv-x="751"><font-face font-family="SF Digital Readout" font-weight="550" font-stretch="normal" units-per-em="2048" panose-1="0 0 4 9 0 0 0 0 0 0" ascent="1195" descent="-341" x-height="0" bbox="51 -101 700 1195" underline-thickness="20" underline-position="-133" unicode-range="U+0025-007a" /><missing-glyph horiz-adv-x="1024"  /><glyph glyph-name="percent" unicode="%" d="M495 0 L444 51 L495 102 L546 51 L495 0 ZM427 68 L375 119 L427 171 L478 119 L427 68 ZM154 119 L154 256 L324 529 L324 393 L154 119 ZM563 68 L512 119 L563 171 L614 119 L563 68 ZM495 137 L444 188 L495 239 L546 188 L495 137 ZM256 956 L205 1007 L256 1058 L307 1007 L256 956 ZM188 1024 L137 1075 L188 1126 L239 1075 L188 1024 ZM427 666 L427 802 L597 1075 L597 939 L427 666 ZM324 1024 L273 1075 L324 1126 L375 1075 L324 1024 ZM256 1092 L205 1143 L256 1195 L307 1143 L256 1092 Z" /><glyph glyph-name="comma" unicode="," d="M375 -101 L324 -49 L324 51 L375 102 L427 51 L427 -49 L375 -101 Z" /><glyph glyph-name="hyphen" unicode="-" d="M316 546 L171 546 L119 597 L171 649 L316 649 L367 597 L316 546 ZM580 546 L435 546 L384 597 L435 649 L580 649 L631 597 L580 546 Z" /><glyph glyph-name="period" unicode="." d="M375 0 L324 51 L375 102 L427 51 L375 0 Z" /><glyph glyph-name="zero" unicode="0" d="M580 0 L171 0 L119 51 L171 102 L580 102 L631 51 L580 0 ZM137 256 L137 102 L102 68 L51 119 L51 529 L102 580 L154 529 L154 290 L137 256 ZM649 68 L614 102 L614 256 L597 290 L597 529 L649 580 L700 529 L700 119 L649 68 ZM102 614 L51 666 L51 1075 L102 1126 L137 1092 L137 939 L154 905 L154 666 L102 614 ZM649 614 L597 666 L597 905 L614 939 L614 1092 L649 1126 L700 1075 L700 666 L649 614 ZM580 1092 L171 1092 L119 1143 L171 1195 L580 1195 L631 1143 L580 1092 Z" /><glyph glyph-name="one" unicode="1" d="M649 68 L614 102 L614 256 L597 290 L597 529 L649 580 L700 529 L700 119 L649 68 ZM649 614 L597 666 L597 905 L614 939 L614 1092 L649 1126 L700 1075 L700 666 L649 614 Z" /><glyph glyph-name="two" unicode="2" d="M580 0 L171 0 L119 51 L171 102 L580 102 L631 51 L580 0 ZM137 256 L137 102 L102 68 L51 119 L51 529 L102 580 L154 529 L154 290 L137 256 ZM316 546 L171 546 L119 597 L171 649 L316 649 L367 597 L316 546 ZM580 546 L435 546 L384 597 L435 649 L580 649 L631 597 L580 546 ZM649 614 L597 666 L597 905 L614 939 L614 1092 L649 1126 L700 1075 L700 666 L649 614 ZM580 1092 L171 1092 L119 1143 L171 1195 L580 1195 L631 1143 L580 1092 Z" /><glyph glyph-name="three" unicode="3" d="M580 0 L171 0 L119 51 L171 102 L580 102 L631 51 L580 0 ZM316 546 L171 546 L119 597 L171 649 L316 649 L367 597 L316 546 ZM649 68 L614 102 L614 256 L597 290 L597 529 L649 580 L700 529 L700 119 L649 68 ZM580 546 L435 546 L384 597 L435 649 L580 649 L631 597 L580 546 ZM649 614 L597 666 L597 905 L614 939 L614 1092 L649 1126 L700 1075 L700 666 L649 614 ZM580 1092 L171 1092 L119 1143 L171 1195 L580 1195 L631 1143 L580 1092 Z" /><glyph glyph-name="four" unicode="4" d="M316 546 L171 546 L119 597 L171 649 L316 649 L367 597 L316 546 ZM649 68 L614 102 L614 256 L597 290 L597 529 L649 580 L700 529 L700 119 L649 68 ZM102 614 L51 666 L51 1075 L102 1126 L137 1092 L137 939 L154 905 L154 666 L102 614 ZM580 546 L435 546 L384 597 L435 649 L580 649 L631 597 L580 546 ZM649 614 L597 666 L597 905 L614 939 L614 1092 L649 1126 L700 1075 L700 666 L649 614 Z" /><glyph glyph-name="five" unicode="5" d="M580 0 L171 0 L119 51 L171 102 L580 102 L631 51 L580 0 ZM316 546 L171 546 L119 597 L171 649 L316 649 L367 597 L316 546 ZM649 68 L614 102 L614 256 L597 290 L597 529 L649 580 L700 529 L700 119 L649 68 ZM102 614 L51 666 L51 1075 L102 1126 L137 1092 L137 939 L154 905 L154 666 L102 614 ZM580 546 L435 546 L384 597 L435 649 L580 649 L631 597 L580 546 ZM580 1092 L171 1092 L119 1143 L171 1195 L580 1195 L631 1143 L580 1092 Z" /><glyph glyph-name="six" unicode="6" d="M580 0 L171 0 L119 51 L171 102 L580 102 L631 51 L580 0 ZM137 256 L137 102 L102 68 L51 119 L51 529 L102 580 L154 529 L154 290 L137 256 ZM316 546 L171 546 L119 597 L171 649 L316 649 L367 597 L316 546 ZM649 68 L614 102 L614 256 L597 290 L597 529 L649 580 L700 529 L700 119 L649 68 ZM102 614 L51 666 L51 1075 L102 1126 L137 1092 L137 939 L154 905 L154 666 L102 614 ZM580 546 L435 546 L384 597 L435 649 L580 649 L631 597 L580 546 ZM580 1092 L171 1092 L119 1143 L171 1195 L580 1195 L631 1143 L580 1092 Z" /><glyph glyph-name="seven" unicode="7" d="M649 68 L614 102 L614 256 L597 290 L597 529 L649 580 L700 529 L700 119 L649 68 ZM649 614 L597 666 L597 905 L614 939 L614 1092 L649 1126 L700 1075 L700 666 L649 614 ZM580 1092 L171 1092 L119 1143 L171 1195 L580 1195 L631 1143 L580 1092 Z" /><glyph glyph-name="eight" unicode="8" d="M580 0 L171 0 L119 51 L171 102 L580 102 L631 51 L580 0 ZM137 256 L137 102 L102 68 L51 119 L51 529 L102 580 L154 529 L154 290 L137 256 ZM316 546 L171 546 L119 597 L171 649 L316 649 L367 597 L316 546 ZM649 68 L614 102 L614 256 L597 290 L597 529 L649 580 L700 529 L700 119 L649 68 ZM102 614 L51 666 L51 1075 L102 1126 L137 1092 L137 939 L154 905 L154 666 L102 614 ZM580 546 L435 546 L384 597 L435 649 L580 649 L631 597 L580 546 ZM649 614 L597 666 L597 905 L614 939 L614 1092 L649 1126 L700 1075 L700 666 L649 614 ZM580 1092 L171 1092 L119 1143 L171 1195 L580 1195 L631 1143 L580 1092 Z" /><glyph glyph-name="nine" unicode="9" d="M580 0 L171 0 L119 51 L171 102 L580 102 L631 51 L580 0 ZM316 546 L171 546 L119 597 L171 649 L316 649 L367 597 L316 546 ZM649 68 L614 102 L614 256 L597 290 L597 529 L649 580 L700 529 L700 119 L649 68 ZM102 614 L51 666 L51 1075 L102 1126 L137 1092 L137 939 L154 905 L154 666 L102 614 ZM580 546 L435 546 L384 597 L435 649 L580 649 L631 597 L580 546 ZM649 614 L597 666 L597 905 L614 939 L614 1092 L649 1126 L700 1075 L700 666 L649 614 ZM580 1092 L171 1092 L119 1143 L171 1195 L580 1195 L631 1143 L580 1092 Z" /><glyph glyph-name="colon" unicode=":" d="M375 0 L324 51 L375 102 L427 51 L375 0 ZM375 478 L324 529 L375 580 L427 529 L375 478 Z" /><glyph glyph-name="A" unicode="a" d="M137 256 L137 102 L102 68 L51 119 L51 529 L102 580 L154 529 L154 290 L137 256 ZM316 546 L171 546 L119 597 L171 649 L316 649 L367 597 L316 546 ZM649 68 L614 102 L614 256 L597 290 L597 529 L649 580 L700 529 L700 119 L649 68 ZM102 614 L51 666 L51 1075 L102 1126 L137 1092 L137 939 L154 905 L154 666 L102 614 ZM580 546 L435 546 L384 597 L435 649 L580 649 L631 597 L580 546 ZM649 614 L597 666 L597 905 L614 939 L614 1092 L649 1126 L700 1075 L700 666 L649 614 ZM580 1092 L171 1092 L119 1143 L171 1195 L580 1195 L631 1143 L580 1092 Z" /><glyph glyph-name="B" unicode="b" d="M580 0 L171 0 L119 51 L171 102 L580 102 L631 51 L580 0 ZM324 119 L324 358 L341 393 L341 546 L375 580 L410 546 L410 393 L427 358 L427 119 L324 119 ZM649 68 L614 102 L614 256 L597 290 L597 529 L649 580 L700 529 L700 119 L649 68 ZM580 546 L435 546 L384 597 L435 649 L580 649 L631 597 L580 546 ZM410 802 L410 649 L375 614 L341 649 L341 802 L324 836 L324 1075 L427 1075 L427 836 L410 802 ZM649 614 L597 666 L597 905 L614 939 L614 1092 L649 1126 L700 1075 L700 666 L649 614 ZM580 1092 L171 1092 L119 1143 L171 1195 L580 1195 L631 1143 L580 1092 Z" /><glyph glyph-name="C" unicode="c" d="M580 0 L171 0 L119 51 L171 102 L580 102 L631 51 L580 0 ZM137 256 L137 102 L102 68 L51 119 L51 529 L102 580 L154 529 L154 290 L137 256 ZM102 614 L51 666 L51 1075 L102 1126 L137 1092 L137 939 L154 905 L154 666 L102 614 ZM580 1092 L171 1092 L119 1143 L171 1195 L580 1195 L631 1143 L580 1092 Z" /><glyph glyph-name="D" unicode="d" d="M580 0 L171 0 L119 51 L171 102 L580 102 L631 51 L580 0 ZM324 119 L324 358 L341 393 L341 546 L375 580 L410 546 L410 393 L427 358 L427 119 L324 119 ZM649 68 L614 102 L614 256 L597 290 L597 529 L649 580 L700 529 L700 119 L649 68 ZM410 802 L410 649 L375 614 L341 649 L341 802 L324 836 L324 1075 L427 1075 L427 836 L410 802 ZM649 614 L597 666 L597 905 L614 939 L614 1092 L649 1126 L700 1075 L700 666 L649 614 ZM580 1092 L171 1092 L119 1143 L171 1195 L580 1195 L631 1143 L580 1092 Z" /><glyph glyph-name="E" unicode="e" d="M580 0 L171 0 L119 51 L171 102 L580 102 L631 51 L580 0 ZM137 256 L137 102 L102 68 L51 119 L51 529 L102 580 L154 529 L154 290 L137 256 ZM316 546 L171 546 L119 597 L171 649 L316 649 L367 597 L316 546 ZM102 614 L51 666 L51 1075 L102 1126 L137 1092 L137 939 L154 905 L154 666 L102 614 ZM580 546 L435 546 L384 597 L435 649 L580 649 L631 597 L580 546 ZM580 1092 L171 1092 L119 1143 L171 1195 L580 1195 L631 1143 L580 1092 Z" /><glyph glyph-name="F" unicode="f" d="M137 256 L137 102 L102 68 L51 119 L51 529 L102 580 L154 529 L154 290 L137 256 ZM316 546 L171 546 L119 597 L171 649 L316 649 L367 597 L316 546 ZM102 614 L51 666 L51 1075 L102 1126 L137 1092 L137 939 L154 905 L154 666 L102 614 ZM580 546 L435 546 L384 597 L435 649 L580 649 L631 597 L580 546 ZM580 1092 L171 1092 L119 1143 L171 1195 L580 1195 L631 1143 L580 1092 Z" /><glyph glyph-name="G" unicode="g" d="M580 0 L171 0 L119 51 L171 102 L580 102 L631 51 L580 0 ZM137 256 L137 102 L102 68 L51 119 L51 529 L102 580 L154 529 L154 290 L137 256 ZM649 68 L614 102 L614 256 L597 290 L597 529 L649 580 L700 529 L700 119 L649 68 ZM102 614 L51 666 L51 1075 L102 1126 L137 1092 L137 939 L154 905 L154 666 L102 614 ZM580 546 L435 546 L384 597 L435 649 L580 649 L631 597 L580 546 ZM580 1092 L171 1092 L119 1143 L171 1195 L580 1195 L631 1143 L580 1092 Z" /><glyph glyph-name="H" unicode="h" d="M137 256 L137 102 L102 68 L51 119 L51 529 L102 580 L154 529 L154 290 L137 256 ZM316 546 L171 546 L119 597 L171 649 L316 649 L367 597 L316 546 ZM649 68 L614 102 L614 256 L597 290 L597 529 L649 580 L700 529 L700 119 L649 68 ZM102 614 L51 666 L51 1075 L102 1126 L137 1092 L137 939 L154 905 L154 666 L102 614 ZM580 546 L435 546 L384 597 L435 649 L580 649 L631 597 L580 546 ZM649 614 L597 666 L597 905 L614 939 L614 1092 L649 1126 L700 1075 L700 666 L649 614 Z" /><glyph glyph-name="I" unicode="i" d="M324 119 L324 358 L341 393 L341 546 L375 580 L410 546 L410 393 L427 358 L427 119 L324 119 ZM410 802 L410 649 L375 614 L341 649 L341 802 L324 836 L324 1075 L427 1075 L427 836 L410 802 Z" /><glyph glyph-name="J" unicode="j" d="M580 0 L171 0 L119 51 L171 102 L580 102 L631 51 L580 0 ZM137 256 L137 102 L102 68 L51 119 L51 529 L102 580 L154 529 L154 290 L137 256 ZM649 68 L614 102 L614 256 L597 290 L597 529 L649 580 L700 529 L700 119 L649 68 ZM649 614 L597 666 L597 905 L614 939 L614 1092 L649 1126 L700 1075 L700 666 L649 614 Z" /><glyph glyph-name="K" unicode="k" d="M137 256 L137 102 L102 68 L51 119 L51 529 L102 580 L154 529 L154 290 L137 256 ZM427 393 L427 529 L597 256 L597 119 L427 393 ZM316 546 L171 546 L119 597 L171 649 L316 649 L367 597 L316 546 ZM102 614 L51 666 L51 1075 L102 1126 L137 1092 L137 939 L154 905 L154 666 L102 614 ZM427 666 L427 802 L597 1075 L597 939 L427 666 Z" /><glyph glyph-name="L" unicode="l" d="M580 0 L171 0 L119 51 L171 102 L580 102 L631 51 L580 0 ZM137 256 L137 102 L102 68 L51 119 L51 529 L102 580 L154 529 L154 290 L137 256 ZM102 614 L51 666 L51 1075 L102 1126 L137 1092 L137 939 L154 905 L154 666 L102 614 Z" /><glyph glyph-name="M" unicode="m" d="M137 256 L137 102 L102 68 L51 119 L51 529 L102 580 L154 529 L154 290 L137 256 ZM324 119 L324 358 L341 393 L341 546 L375 580 L410 546 L410 393 L427 358 L427 119 L324 119 ZM649 68 L614 102 L614 256 L597 290 L597 529 L649 580 L700 529 L700 119 L649 68 ZM102 614 L51 666 L51 1075 L102 1126 L137 1092 L137 939 L154 905 L154 666 L102 614 ZM154 939 L154 1075 L324 802 L324 666 L154 939 ZM427 666 L427 802 L597 1075 L597 939 L427 666 ZM649 614 L597 666 L597 905 L614 939 L614 1092 L649 1126 L700 1075 L700 666 L649 614 Z" /><glyph glyph-name="N" unicode="n" d="M137 256 L137 102 L102 68 L51 119 L51 529 L102 580 L154 529 L154 290 L137 256 ZM649 68 L614 102 L614 256 L597 290 L597 529 L649 580 L700 529 L700 119 L649 68 ZM102 614 L51 666 L51 1075 L102 1126 L137 1092 L137 939 L154 905 L154 666 L102 614 ZM649 614 L597 666 L597 905 L614 939 L614 1092 L649 1126 L700 1075 L700 666 L649 614 ZM580 1092 L171 1092 L119 1143 L171 1195 L580 1195 L631 1143 L580 1092 Z" /><glyph glyph-name="O" unicode="o" d="M580 0 L171 0 L119 51 L171 102 L580 102 L631 51 L580 0 ZM137 256 L137 102 L102 68 L51 119 L51 529 L102 580 L154 529 L154 290 L137 256 ZM649 68 L614 102 L614 256 L597 290 L597 529 L649 580 L700 529 L700 119 L649 68 ZM102 614 L51 666 L51 1075 L102 1126 L137 1092 L137 939 L154 905 L154 666 L102 614 ZM649 614 L597 666 L597 905 L614 939 L614 1092 L649 1126 L700 1075 L700 666 L649 614 ZM580 1092 L171 1092 L119 1143 L171 1195 L580 1195 L631 1143 L580 1092 Z" /><glyph glyph-name="P" unicode="p" d="M137 256 L137 102 L102 68 L51 119 L51 529 L102 580 L154 529 L154 290 L137 256 ZM316 546 L171 546 L119 597 L171 649 L316 649 L367 597 L316 546 ZM102 614 L51 666 L51 1075 L102 1126 L137 1092 L137 939 L154 905 L154 666 L102 614 ZM580 546 L435 546 L384 597 L435 649 L580 649 L631 597 L580 546 ZM649 614 L597 666 L597 905 L614 939 L614 1092 L649 1126 L700 1075 L700 666 L649 614 ZM580 1092 L171 1092 L119 1143 L171 1195 L580 1195 L631 1143 L580 1092 Z" /><glyph glyph-name="Q" unicode="q" d="M580 0 L171 0 L119 51 L171 102 L580 102 L631 51 L580 0 ZM137 256 L137 102 L102 68 L51 119 L51 529 L102 580 L154 529 L154 290 L137 256 ZM427 393 L427 529 L597 256 L597 119 L427 393 ZM649 68 L614 102 L614 256 L597 290 L597 529 L649 580 L700 529 L700 119 L649 68 ZM102 614 L51 666 L51 1075 L102 1126 L137 1092 L137 939 L154 905 L154 666 L102 614 ZM649 614 L597 666 L597 905 L614 939 L614 1092 L649 1126 L700 1075 L700 666 L649 614 ZM580 1092 L171 1092 L119 1143 L171 1195 L580 1195 L631 1143 L580 1092 Z" /><glyph glyph-name="R" unicode="r" d="M137 256 L137 102 L102 68 L51 119 L51 529 L102 580 L154 529 L154 290 L137 256 ZM427 393 L427 529 L597 256 L597 119 L427 393 ZM316 546 L171 546 L119 597 L171 649 L316 649 L367 597 L316 546 ZM102 614 L51 666 L51 1075 L102 1126 L137 1092 L137 939 L154 905 L154 666 L102 614 ZM580 546 L435 546 L384 597 L435 649 L580 649 L631 597 L580 546 ZM649 614 L597 666 L597 905 L614 939 L614 1092 L649 1126 L700 1075 L700 666 L649 614 ZM580 1092 L171 1092 L119 1143 L171 1195 L580 1195 L631 1143 L580 1092 Z" /><glyph glyph-name="S" unicode="s" d="M580 0 L171 0 L119 51 L171 102 L580 102 L631 51 L580 0 ZM316 546 L171 546 L119 597 L171 649 L316 649 L367 597 L316 546 ZM649 68 L614 102 L614 256 L597 290 L597 529 L649 580 L700 529 L700 119 L649 68 ZM102 614 L51 666 L51 1075 L102 1126 L137 1092 L137 939 L154 905 L154 666 L102 614 ZM580 546 L435 546 L384 597 L435 649 L580 649 L631 597 L580 546 ZM580 1092 L171 1092 L119 1143 L171 1195 L580 1195 L631 1143 L580 1092 Z" /><glyph glyph-name="T" unicode="t" d="M324 119 L324 358 L341 393 L341 546 L375 580 L410 546 L410 393 L427 358 L427 119 L324 119 ZM410 802 L410 649 L375 614 L341 649 L341 802 L324 836 L324 1075 L427 1075 L427 836 L410 802 ZM580 1092 L171 1092 L119 1143 L171 1195 L580 1195 L631 1143 L580 1092 Z" /><glyph glyph-name="U" unicode="u" d="M580 0 L171 0 L119 51 L171 102 L580 102 L631 51 L580 0 ZM137 256 L137 102 L102 68 L51 119 L51 529 L102 580 L154 529 L154 290 L137 256 ZM649 68 L614 102 L614 256 L597 290 L597 529 L649 580 L700 529 L700 119 L649 68 ZM102 614 L51 666 L51 1075 L102 1126 L137 1092 L137 939 L154 905 L154 666 L102 614 ZM649 614 L597 666 L597 905 L614 939 L614 1092 L649 1126 L700 1075 L700 666 L649 614 Z" /><glyph glyph-name="V" unicode="v" d="M427 393 L427 529 L597 256 L597 119 L427 393 ZM649 68 L614 102 L614 256 L597 290 L597 529 L649 580 L700 529 L700 119 L649 68 ZM154 939 L154 1075 L324 802 L324 666 L154 939 ZM649 614 L597 666 L597 905 L614 939 L614 1092 L649 1126 L700 1075 L700 666 L649 614 Z" /><glyph glyph-name="W" unicode="w" d="M137 256 L137 102 L102 68 L51 119 L51 529 L102 580 L154 529 L154 290 L137 256 ZM154 119 L154 256 L324 529 L324 393 L154 119 ZM427 393 L427 529 L597 256 L597 119 L427 393 ZM649 68 L614 102 L614 256 L597 290 L597 529 L649 580 L700 529 L700 119 L649 68 ZM102 614 L51 666 L51 1075 L102 1126 L137 1092 L137 939 L154 905 L154 666 L102 614 ZM410 802 L410 649 L375 614 L341 649 L341 802 L324 836 L324 1075 L427 1075 L427 836 L410 802 ZM649 614 L597 666 L597 905 L614 939 L614 1092 L649 1126 L700 1075 L700 666 L649 614 Z" /><glyph glyph-name="X" unicode="x" d="M154 119 L154 256 L324 529 L324 393 L154 119 ZM427 393 L427 529 L597 256 L597 119 L427 393 ZM154 939 L154 1075 L324 802 L324 666 L154 939 ZM427 666 L427 802 L597 1075 L597 939 L427 666 Z" /><glyph glyph-name="Y" unicode="y" d="M324 119 L324 358 L341 393 L341 546 L375 580 L410 546 L410 393 L427 358 L427 119 L324 119 ZM316 546 L171 546 L119 597 L171 649 L316 649 L367 597 L316 546 ZM102 614 L51 666 L51 1075 L102 1126 L137 1092 L137 939 L154 905 L154 666 L102 614 ZM580 546 L435 546 L384 597 L435 649 L580 649 L631 597 L580 546 ZM649 614 L597 666 L597 905 L614 939 L614 1092 L649 1126 L700 1075 L700 666 L649 614 Z" /><glyph glyph-name="Z" unicode="z" d="M580 0 L171 0 L119 51 L171 102 L580 102 L631 51 L580 0 ZM154 119 L154 256 L324 529 L324 393 L154 119 ZM427 666 L427 802 L597 1075 L597 939 L427 666 ZM580 1092 L171 1092 L119 1143 L171 1195 L580 1195 L631 1143 L580 1092 Z" /><glyph glyph-name="a" unicode="a" d="M137 256 L137 102 L102 68 L51 119 L51 529 L102 580 L154 529 L154 290 L137 256 ZM316 546 L171 546 L119 597 L171 649 L316 649 L367 597 L316 546 ZM649 68 L614 102 L614 256 L597 290 L597 529 L649 580 L700 529 L700 119 L649 68 ZM102 614 L51 666 L51 1075 L102 1126 L137 1092 L137 939 L154 905 L154 666 L102 614 ZM580 546 L435 546 L384 597 L435 649 L580 649 L631 597 L580 546 ZM649 614 L597 666 L597 905 L614 939 L614 1092 L649 1126 L700 1075 L700 666 L649 614 ZM580 1092 L171 1092 L119 1143 L171 1195 L580 1195 L631 1143 L580 1092 Z" /><glyph glyph-name="b" unicode="b" d="M580 0 L171 0 L119 51 L171 102 L580 102 L631 51 L580 0 ZM324 119 L324 358 L341 393 L341 546 L375 580 L410 546 L410 393 L427 358 L427 119 L324 119 ZM649 68 L614 102 L614 256 L597 290 L597 529 L649 580 L700 529 L700 119 L649 68 ZM580 546 L435 546 L384 597 L435 649 L580 649 L631 597 L580 546 ZM410 802 L410 649 L375 614 L341 649 L341 802 L324 836 L324 1075 L427 1075 L427 836 L410 802 ZM649 614 L597 666 L597 905 L614 939 L614 1092 L649 1126 L700 1075 L700 666 L649 614 ZM580 1092 L171 1092 L119 1143 L171 1195 L580 1195 L631 1143 L580 1092 Z" /><glyph glyph-name="c" unicode="c" d="M580 0 L171 0 L119 51 L171 102 L580 102 L631 51 L580 0 ZM137 256 L137 102 L102 68 L51 119 L51 529 L102 580 L154 529 L154 290 L137 256 ZM102 614 L51 666 L51 1075 L102 1126 L137 1092 L137 939 L154 905 L154 666 L102 614 ZM580 1092 L171 1092 L119 1143 L171 1195 L580 1195 L631 1143 L580 1092 Z" /><glyph glyph-name="d" unicode="d" d="M580 0 L171 0 L119 51 L171 102 L580 102 L631 51 L580 0 ZM324 119 L324 358 L341 393 L341 546 L375 580 L410 546 L410 393 L427 358 L427 119 L324 119 ZM649 68 L614 102 L614 256 L597 290 L597 529 L649 580 L700 529 L700 119 L649 68 ZM410 802 L410 649 L375 614 L341 649 L341 802 L324 836 L324 1075 L427 1075 L427 836 L410 802 ZM649 614 L597 666 L597 905 L614 939 L614 1092 L649 1126 L700 1075 L700 666 L649 614 ZM580 1092 L171 1092 L119 1143 L171 1195 L580 1195 L631 1143 L580 1092 Z" /><glyph glyph-name="e" unicode="e" d="M580 0 L171 0 L119 51 L171 102 L580 102 L631 51 L580 0 ZM137 256 L137 102 L102 68 L51 119 L51 529 L102 580 L154 529 L154 290 L137 256 ZM316 546 L171 546 L119 597 L171 649 L316 649 L367 597 L316 546 ZM102 614 L51 666 L51 1075 L102 1126 L137 1092 L137 939 L154 905 L154 666 L102 614 ZM580 546 L435 546 L384 597 L435 649 L580 649 L631 597 L580 546 ZM580 1092 L171 1092 L119 1143 L171 1195 L580 1195 L631 1143 L580 1092 Z" /><glyph glyph-name="f" unicode="f" d="M137 256 L137 102 L102 68 L51 119 L51 529 L102 580 L154 529 L154 290 L137 256 ZM316 546 L171 546 L119 597 L171 649 L316 649 L367 597 L316 546 ZM102 614 L51 666 L51 1075 L102 1126 L137 1092 L137 939 L154 905 L154 666 L102 614 ZM580 546 L435 546 L384 597 L435 649 L580 649 L631 597 L580 546 ZM580 1092 L171 1092 L119 1143 L171 1195 L580 1195 L631 1143 L580 1092 Z" /><glyph glyph-name="g" unicode="g" d="M580 0 L171 0 L119 51 L171 102 L580 102 L631 51 L580 0 ZM137 256 L137 102 L102 68 L51 119 L51 529 L102 580 L154 529 L154 290 L137 256 ZM649 68 L614 102 L614 256 L597 290 L597 529 L649 580 L700 529 L700 119 L649 68 ZM102 614 L51 666 L51 1075 L102 1126 L137 1092 L137 939 L154 905 L154 666 L102 614 ZM580 546 L435 546 L384 597 L435 649 L580 649 L631 597 L580 546 ZM580 1092 L171 1092 L119 1143 L171 1195 L580 1195 L631 1143 L580 1092 Z" /><glyph glyph-name="h" unicode="h" d="M137 256 L137 102 L102 68 L51 119 L51 529 L102 580 L154 529 L154 290 L137 256 ZM316 546 L171 546 L119 597 L171 649 L316 649 L367 597 L316 546 ZM649 68 L614 102 L614 256 L597 290 L597 529 L649 580 L700 529 L700 119 L649 68 ZM102 614 L51 666 L51 1075 L102 1126 L137 1092 L137 939 L154 905 L154 666 L102 614 ZM580 546 L435 546 L384 597 L435 649 L580 649 L631 597 L580 546 ZM649 614 L597 666 L597 905 L614 939 L614 1092 L649 1126 L700 1075 L700 666 L649 614 Z" /><glyph glyph-name="i" unicode="i" d="M324 119 L324 358 L341 393 L341 546 L375 580 L410 546 L410 393 L427 358 L427 119 L324 119 ZM410 802 L410 649 L375 614 L341 649 L341 802 L324 836 L324 1075 L427 1075 L427 836 L410 802 Z" /><glyph glyph-name="j" unicode="j" d="M580 0 L171 0 L119 51 L171 102 L580 102 L631 51 L580 0 ZM137 256 L137 102 L102 68 L51 119 L51 529 L102 580 L154 529 L154 290 L137 256 ZM649 68 L614 102 L614 256 L597 290 L597 529 L649 580 L700 529 L700 119 L649 68 ZM649 614 L597 666 L597 905 L614 939 L614 1092 L649 1126 L700 1075 L700 666 L649 614 Z" /><glyph glyph-name="k" unicode="k" d="M137 256 L137 102 L102 68 L51 119 L51 529 L102 580 L154 529 L154 290 L137 256 ZM427 393 L427 529 L597 256 L597 119 L427 393 ZM316 546 L171 546 L119 597 L171 649 L316 649 L367 597 L316 546 ZM102 614 L51 666 L51 1075 L102 1126 L137 1092 L137 939 L154 905 L154 666 L102 614 ZM427 666 L427 802 L597 1075 L597 939 L427 666 Z" /><glyph glyph-name="l" unicode="l" d="M580 0 L171 0 L119 51 L171 102 L580 102 L631 51 L580 0 ZM137 256 L137 102 L102 68 L51 119 L51 529 L102 580 L154 529 L154 290 L137 256 ZM102 614 L51 666 L51 1075 L102 1126 L137 1092 L137 939 L154 905 L154 666 L102 614 Z" /><glyph glyph-name="m" unicode="m" d="M137 256 L137 102 L102 68 L51 119 L51 529 L102 580 L154 529 L154 290 L137 256 ZM324 119 L324 358 L341 393 L341 546 L375 580 L410 546 L410 393 L427 358 L427 119 L324 119 ZM649 68 L614 102 L614 256 L597 290 L597 529 L649 580 L700 529 L700 119 L649 68 ZM102 614 L51 666 L51 1075 L102 1126 L137 1092 L137 939 L154 905 L154 666 L102 614 ZM154 939 L154 1075 L324 802 L324 666 L154 939 ZM427 666 L427 802 L597 1075 L597 939 L427 666 ZM649 614 L597 666 L597 905 L614 939 L614 1092 L649 1126 L700 1075 L700 666 L649 614 Z" /><glyph glyph-name="n" unicode="n" d="M137 256 L137 102 L102 68 L51 119 L51 529 L102 580 L154 529 L154 290 L137 256 ZM649 68 L614 102 L614 256 L597 290 L597 529 L649 580 L700 529 L700 119 L649 68 ZM102 614 L51 666 L51 1075 L102 1126 L137 1092 L137 939 L154 905 L154 666 L102 614 ZM649 614 L597 666 L597 905 L614 939 L614 1092 L649 1126 L700 1075 L700 666 L649 614 ZM580 1092 L171 1092 L119 1143 L171 1195 L580 1195 L631 1143 L580 1092 Z" /><glyph glyph-name="o" unicode="o" d="M580 0 L171 0 L119 51 L171 102 L580 102 L631 51 L580 0 ZM137 256 L137 102 L102 68 L51 119 L51 529 L102 580 L154 529 L154 290 L137 256 ZM649 68 L614 102 L614 256 L597 290 L597 529 L649 580 L700 529 L700 119 L649 68 ZM102 614 L51 666 L51 1075 L102 1126 L137 1092 L137 939 L154 905 L154 666 L102 614 ZM649 614 L597 666 L597 905 L614 939 L614 1092 L649 1126 L700 1075 L700 666 L649 614 ZM580 1092 L171 1092 L119 1143 L171 1195 L580 1195 L631 1143 L580 1092 Z" /><glyph glyph-name="p" unicode="p" d="M137 256 L137 102 L102 68 L51 119 L51 529 L102 580 L154 529 L154 290 L137 256 ZM316 546 L171 546 L119 597 L171 649 L316 649 L367 597 L316 546 ZM102 614 L51 666 L51 1075 L102 1126 L137 1092 L137 939 L154 905 L154 666 L102 614 ZM580 546 L435 546 L384 597 L435 649 L580 649 L631 597 L580 546 ZM649 614 L597 666 L597 905 L614 939 L614 1092 L649 1126 L700 1075 L700 666 L649 614 ZM580 1092 L171 1092 L119 1143 L171 1195 L580 1195 L631 1143 L580 1092 Z" /><glyph glyph-name="q" unicode="q" d="M580 0 L171 0 L119 51 L171 102 L580 102 L631 51 L580 0 ZM137 256 L137 102 L102 68 L51 119 L51 529 L102 580 L154 529 L154 290 L137 256 ZM427 393 L427 529 L597 256 L597 119 L427 393 ZM649 68 L614 102 L614 256 L597 290 L597 529 L649 580 L700 529 L700 119 L649 68 ZM102 614 L51 666 L51 1075 L102 1126 L137 1092 L137 939 L154 905 L154 666 L102 614 ZM649 614 L597 666 L597 905 L614 939 L614 1092 L649 1126 L700 1075 L700 666 L649 614 ZM580 1092 L171 1092 L119 1143 L171 1195 L580 1195 L631 1143 L580 1092 Z" /><glyph glyph-name="r" unicode="r" d="M137 256 L137 102 L102 68 L51 119 L51 529 L102 580 L154 529 L154 290 L137 256 ZM427 393 L427 529 L597 256 L597 119 L427 393 ZM316 546 L171 546 L119 597 L171 649 L316 649 L367 597 L316 546 ZM102 614 L51 666 L51 1075 L102 1126 L137 1092 L137 939 L154 905 L154 666 L102 614 ZM580 546 L435 546 L384 597 L435 649 L580 649 L631 597 L580 546 ZM649 614 L597 666 L597 905 L614 939 L614 1092 L649 1126 L700 1075 L700 666 L649 614 ZM580 1092 L171 1092 L119 1143 L171 1195 L580 1195 L631 1143 L580 1092 Z" /><glyph glyph-name="s" unicode="s" d="M580 0 L171 0 L119 51 L171 102 L580 102 L631 51 L580 0 ZM316 546 L171 546 L119 597 L171 649 L316 649 L367 597 L316 546 ZM649 68 L614 102 L614 256 L597 290 L597 529 L649 580 L700 529 L700 119 L649 68 ZM102 614 L51 666 L51 1075 L102 1126 L137 1092 L137 939 L154 905 L154 666 L102 614 ZM580 546 L435 546 L384 597 L435 649 L580 649 L631 597 L580 546 ZM580 1092 L171 1092 L119 1143 L171 1195 L580 1195 L631 1143 L580 1092 Z" /><glyph glyph-name="t" unicode="t" d="M324 119 L324 358 L341 393 L341 546 L375 580 L410 546 L410 393 L427 358 L427 119 L324 119 ZM410 802 L410 649 L375 614 L341 649 L341 802 L324 836 L324 1075 L427 1075 L427 836 L410 802 ZM580 1092 L171 1092 L119 1143 L171 1195 L580 1195 L631 1143 L580 1092 Z" /><glyph glyph-name="u" unicode="u" d="M580 0 L171 0 L119 51 L171 102 L580 102 L631 51 L580 0 ZM137 256 L137 102 L102 68 L51 119 L51 529 L102 580 L154 529 L154 290 L137 256 ZM649 68 L614 102 L614 256 L597 290 L597 529 L649 580 L700 529 L700 119 L649 68 ZM102 614 L51 666 L51 1075 L102 1126 L137 1092 L137 939 L154 905 L154 666 L102 614 ZM649 614 L597 666 L597 905 L614 939 L614 1092 L649 1126 L700 1075 L700 666 L649 614 Z" /><glyph glyph-name="v" unicode="v" d="M427 393 L427 529 L597 256 L597 119 L427 393 ZM649 68 L614 102 L614 256 L597 290 L597 529 L649 580 L700 529 L700 119 L649 68 ZM154 939 L154 1075 L324 802 L324 666 L154 939 ZM649 614 L597 666 L597 905 L614 939 L614 1092 L649 1126 L700 1075 L700 666 L649 614 Z" /><glyph glyph-name="w" unicode="w" d="M137 256 L137 102 L102 68 L51 119 L51 529 L102 580 L154 529 L154 290 L137 256 ZM154 119 L154 256 L324 529 L324 393 L154 119 ZM427 393 L427 529 L597 256 L597 119 L427 393 ZM649 68 L614 102 L614 256 L597 290 L597 529 L649 580 L700 529 L700 119 L649 68 ZM102 614 L51 666 L51 1075 L102 1126 L137 1092 L137 939 L154 905 L154 666 L102 614 ZM410 802 L410 649 L375 614 L341 649 L341 802 L324 836 L324 1075 L427 1075 L427 836 L410 802 ZM649 614 L597 666 L597 905 L614 939 L614 1092 L649 1126 L700 1075 L700 666 L649 614 Z" /><glyph glyph-name="x" unicode="x" d="M154 119 L154 256 L324 529 L324 393 L154 119 ZM427 393 L427 529 L597 256 L597 119 L427 393 ZM154 939 L154 1075 L324 802 L324 666 L154 939 ZM427 666 L427 802 L597 1075 L597 939 L427 666 Z" /><glyph glyph-name="y" unicode="y" d="M324 119 L324 358 L341 393 L341 546 L375 580 L410 546 L410 393 L427 358 L427 119 L324 119 ZM316 546 L171 546 L119 597 L171 649 L316 649 L367 597 L316 546 ZM102 614 L51 666 L51 1075 L102 1126 L137 1092 L137 939 L154 905 L154 666 L102 614 ZM580 546 L435 546 L384 597 L435 649 L580 649 L631 597 L580 546 ZM649 614 L597 666 L597 905 L614 939 L614 1092 L649 1126 L700 1075 L700 666 L649 614 Z" /><glyph glyph-name="z" unicode="z" d="M580 0 L171 0 L119 51 L171 102 L580 102 L631 51 L580 0 ZM154 119 L154 256 L324 529 L324 393 L154 119 ZM427 666 L427 802 L597 1075 L597 939 L427 666 ZM580 1092 L171 1092 L119 1143 L171 1195 L580 1195 L631 1143 L580 1092 Z" /></font>
</defs>
</svg>
